<svg width="864" height="969" viewBox="0 0 864 969" fill="none" xmlns="http://www.w3.org/2000/svg">
<g clip-path="url(#clip0_461_2)">
<rect width="864" height="969" fill="black"/>
<path d="M-741.459 583.632L-415.492 369.163C-397.604 357.393 -386.274 337.806 -384.923 316.315L-360.819 -67.0709C-359.918 -81.407 -354.553 -95.0908 -345.489 -106.175L-159.162 -334.024C-145.036 -351.297 -123.407 -360.491 -101.276 -358.631L160.781 -336.598" stroke="white" stroke-opacity="0.55"/>
<path d="M-728.832 591.429L-402.865 376.959C-384.977 365.19 -373.647 345.602 -372.296 324.112L-348.192 -59.2742C-347.291 -73.6104 -341.926 -87.2942 -332.862 -98.3781L-146.535 -326.228C-132.409 -343.501 -110.78 -352.695 -88.6489 -350.834L173.408 -328.801" stroke="white" stroke-opacity="0.55"/>
<path d="M-717.167 599.572L-391.2 385.102C-373.312 373.333 -361.981 353.745 -360.63 332.255L-336.527 -51.1314C-335.625 -65.4675 -330.261 -79.1514 -321.197 -90.2353L-134.869 -318.085C-120.744 -335.358 -99.1147 -344.552 -76.9834 -342.691L185.073 -320.658" stroke="white" stroke-opacity="0.55"/>
<path d="M-668.41 631.394L-342.442 416.925C-324.554 405.155 -313.224 385.568 -311.873 364.077L-287.769 -19.3089C-286.868 -33.645 -281.504 -47.3289 -272.439 -58.4128L-86.1117 -286.262C-71.9865 -303.535 -50.3574 -312.73 -28.226 -310.869L233.831 -288.836" stroke="white" stroke-opacity="0.55"/>
<path d="M-655.782 639.191L-329.815 424.721C-311.927 412.952 -300.597 393.365 -299.245 371.874L-275.142 -11.512C-274.241 -25.8481 -268.876 -39.532 -259.812 -50.6159L-73.4843 -278.465C-59.3591 -295.738 -37.7299 -304.933 -15.5986 -303.072L246.458 -281.039" stroke="white" stroke-opacity="0.55"/>
<path d="M-644.117 647.333L-318.15 432.864C-300.262 421.094 -288.931 401.507 -287.58 380.017L-263.477 -3.36968C-262.575 -17.7058 -257.211 -31.3896 -248.147 -42.4736L-61.8193 -270.323C-47.694 -287.596 -26.0649 -296.79 -3.93356 -294.93L258.123 -272.897" stroke="white" stroke-opacity="0.55"/>
<path d="M-705.222 607.313L-379.254 392.843C-361.366 381.074 -350.036 361.486 -348.685 339.996L-324.581 -43.3904C-323.68 -57.7266 -318.316 -71.4104 -309.251 -82.4943L-122.924 -310.344C-108.799 -327.617 -87.1694 -336.811 -65.0381 -334.95L197.019 -312.917" stroke="white" stroke-opacity="0.55"/>
<path d="M-692.595 615.109L-366.627 400.64C-348.739 388.87 -337.409 369.283 -336.058 347.793L-311.954 -35.5938C-311.053 -49.9299 -305.689 -63.6138 -296.625 -74.6977L-110.297 -302.547C-96.1716 -319.82 -74.5424 -329.014 -52.4111 -327.154L209.646 -305.121" stroke="white" stroke-opacity="0.55"/>
<path d="M-680.93 623.252L-354.962 408.782C-337.074 397.013 -325.744 377.425 -324.393 355.935L-300.289 -27.4512C-299.388 -41.7874 -294.024 -55.4712 -284.959 -66.5551L-98.6318 -294.405C-84.5065 -311.678 -62.8774 -320.872 -40.7461 -319.011L221.311 -296.978" stroke="white" stroke-opacity="0.55"/>
<path d="M-633.114 657.648L-307.146 443.179C-289.258 431.409 -277.928 411.822 -276.577 390.332L-252.473 6.94526C-251.572 -7.39087 -246.208 -21.0747 -237.144 -32.1586L-50.8158 -260.008C-36.6906 -277.281 -15.0615 -286.475 7.06986 -284.615L269.127 -262.582" stroke="white" stroke-opacity="0.55"/>
<path d="M-620.485 665.445L-294.518 450.975C-276.63 439.206 -265.3 419.619 -263.949 398.128L-239.845 14.7419C-238.944 0.405759 -233.579 -13.2781 -224.515 -24.362L-38.1874 -252.211C-24.0622 -269.484 -2.43304 -278.679 19.6983 -276.818L281.755 -254.785" stroke="white" stroke-opacity="0.55"/>
<path d="M-608.822 673.587L-282.855 459.118C-264.966 447.348 -253.636 427.761 -252.285 406.271L-228.181 22.8845C-227.28 8.54834 -221.916 -5.13549 -212.852 -16.2194L-26.5239 -244.069C-12.3986 -261.342 9.23054 -270.536 31.3619 -268.675L293.419 -246.642" stroke="white" stroke-opacity="0.55"/>
<path d="M-560.064 705.41L-234.097 490.941C-216.209 479.171 -204.878 459.584 -203.527 438.094L-179.424 54.7072C-178.522 40.3711 -173.158 26.6873 -164.094 15.6033L22.234 -212.246C36.3592 -229.519 57.9883 -238.713 80.1197 -236.853L342.177 -214.82" stroke="white" stroke-opacity="0.55"/>
<path d="M-547.436 713.207L-221.469 498.737C-203.581 486.968 -192.25 467.38 -190.899 445.89L-166.796 62.5036C-165.894 48.1675 -160.53 34.4836 -151.466 23.3997L34.8619 -204.45C48.9871 -221.723 70.6163 -230.917 92.7476 -229.056L354.804 -207.023" stroke="white" stroke-opacity="0.55"/>
<path d="M-535.771 721.349L-209.804 506.88C-191.916 495.11 -180.585 475.523 -179.234 454.033L-155.131 70.6464C-154.229 56.3103 -148.865 42.6265 -139.801 31.5425L46.5269 -196.307C60.6522 -213.58 82.2813 -222.774 104.413 -220.913L366.469 -198.88" stroke="white" stroke-opacity="0.55"/>
<path d="M-596.876 681.328L-270.909 466.859C-253.021 455.089 -241.69 435.502 -240.339 414.012L-216.236 30.6254C-215.334 16.2893 -209.97 2.60547 -200.906 -8.47846L-14.5781 -236.328C-0.452812 -253.601 21.1763 -262.795 43.3077 -260.934L305.365 -238.901" stroke="white" stroke-opacity="0.55"/>
<path d="M-584.248 689.125L-258.281 474.656C-240.393 462.886 -229.063 443.299 -227.712 421.809L-203.608 38.4223C-202.707 24.0862 -197.342 10.4023 -188.278 -0.68158L-1.95061 -228.531C12.1746 -245.804 33.8038 -254.998 55.9351 -253.138L317.992 -231.105" stroke="white" stroke-opacity="0.55"/>
<path d="M-572.583 697.268L-246.616 482.798C-228.728 471.029 -217.398 451.441 -216.047 429.951L-191.943 46.5646C-191.042 32.2285 -185.677 18.5447 -176.613 7.46075L9.71443 -220.389C23.8397 -237.662 45.4688 -246.856 67.6001 -244.995L329.657 -222.962" stroke="white" stroke-opacity="0.55"/>
<path d="M-522.373 731.72L-196.406 517.25C-178.518 505.481 -167.188 485.893 -165.837 464.403L-141.733 81.0168C-140.832 66.6807 -135.467 52.9968 -126.403 41.9129L59.9244 -185.937C74.0496 -203.21 95.6788 -212.404 117.81 -210.543L379.867 -188.51" stroke="white" stroke-opacity="0.55"/>
<path d="M-509.746 739.516L-183.778 525.047C-165.89 513.277 -154.56 493.69 -153.209 472.2L-129.105 88.8134C-128.204 74.4773 -122.839 60.7935 -113.775 49.7095L72.5523 -178.14C86.6776 -195.413 108.307 -204.607 130.438 -202.746L392.495 -180.713" stroke="white" stroke-opacity="0.55"/>
<path d="M-498.081 747.659L-172.114 533.189C-154.226 521.42 -142.896 501.833 -141.545 480.342L-117.441 96.956C-116.54 82.6199 -111.175 68.936 -102.111 57.8521L84.2164 -169.997C98.3416 -187.27 119.971 -196.465 142.102 -194.604L404.159 -172.571" stroke="white" stroke-opacity="0.55"/>
<path d="M-449.323 779.482L-123.356 565.012C-105.468 553.243 -94.1375 533.656 -92.7864 512.165L-68.6829 128.779C-67.7815 114.443 -62.4171 100.759 -53.353 89.6751L132.975 -138.174C147.1 -155.447 168.729 -164.642 190.86 -162.781L452.917 -140.748" stroke="white" stroke-opacity="0.55"/>
<path d="M-436.695 787.279L-110.728 572.809C-92.8399 561.04 -81.5096 541.453 -80.1585 519.962L-56.0549 136.576C-55.1536 122.24 -49.7892 108.556 -40.7251 97.472L145.603 -130.378C159.728 -147.65 181.357 -156.845 203.488 -154.984L465.545 -132.951" stroke="white" stroke-opacity="0.55"/>
<path d="M-425.031 795.421L-99.064 580.952C-81.1759 569.182 -69.8455 549.595 -68.4944 528.105L-44.3909 144.718C-43.4896 130.382 -38.1251 116.698 -29.061 105.614L157.267 -122.235C171.392 -139.508 193.021 -148.702 215.152 -146.842L477.209 -124.809" stroke="white" stroke-opacity="0.55"/>
<path d="M-486.136 755.4L-160.169 540.931C-142.281 529.161 -130.951 509.574 -129.599 488.084L-105.496 104.697C-104.595 90.3611 -99.2301 76.6773 -90.166 65.5933L96.1617 -162.256C110.287 -179.529 131.916 -188.723 154.047 -186.863L416.104 -164.83" stroke="white" stroke-opacity="0.55"/>
<path d="M-473.508 763.197L-147.541 548.727C-129.652 536.958 -118.322 517.371 -116.971 495.88L-92.8674 112.494C-91.9661 98.1577 -86.6017 84.4739 -77.5376 73.39L108.79 -154.46C122.915 -171.732 144.545 -180.927 166.676 -179.066L428.733 -157.033" stroke="white" stroke-opacity="0.55"/>
<path d="M-461.844 771.339L-135.876 556.87C-117.988 545.1 -106.658 525.513 -105.307 504.023L-81.2034 120.636C-80.3021 106.3 -74.9376 92.6165 -65.8735 81.5325L120.454 -146.317C134.579 -163.59 156.209 -172.784 178.34 -170.923L440.397 -148.89" stroke="white" stroke-opacity="0.55"/>
<path d="M-414.027 805.736L-88.0601 591.266C-70.172 579.497 -58.8416 559.91 -57.4905 538.419L-33.387 155.033C-32.4856 140.697 -27.1212 127.013 -18.0571 115.929L168.271 -111.92C182.396 -129.193 204.025 -138.388 226.156 -136.527L488.213 -114.494" stroke="white" stroke-opacity="0.55"/>
<path d="M-401.399 813.533L-75.4316 599.063C-57.5435 587.294 -46.2132 567.706 -44.8621 546.216L-20.7585 162.83C-19.8572 148.493 -14.4928 134.81 -5.42871 123.726L180.899 -104.124C195.024 -121.397 216.653 -130.591 238.785 -128.73L500.842 -106.697" stroke="white" stroke-opacity="0.55"/>
<path d="M-389.735 821.675L-63.7676 607.206C-45.8795 595.436 -34.5491 575.849 -33.198 554.358L-9.09448 170.972C-8.19317 156.636 -2.82871 142.952 6.23536 131.868L192.563 -95.9813C206.688 -113.254 228.317 -122.448 250.449 -120.588L512.506 -98.5548" stroke="white" stroke-opacity="0.55"/>
<path d="M-340.977 853.498L-15.0103 639.028C2.87784 627.259 14.2082 607.672 15.5593 586.181L39.6628 202.795C40.5642 188.459 45.9286 174.775 54.9927 163.691L241.32 -64.1585C255.446 -81.4315 277.075 -90.6257 299.206 -88.765L561.263 -66.732" stroke="white" stroke-opacity="0.55"/>
<path d="M-328.349 861.294L-2.38185 646.825C15.5063 635.055 26.8366 615.468 28.1877 593.978L52.2913 210.592C53.1926 196.255 58.557 182.572 67.6211 171.488L253.949 -56.3619C268.074 -73.6348 289.703 -82.8291 311.835 -80.9684L573.891 -58.9354" stroke="white" stroke-opacity="0.55"/>
<path d="M-316.685 869.437L9.28222 654.968C27.1703 643.198 38.5007 623.611 39.8518 602.12L63.9553 218.734C64.8566 204.398 70.2211 190.714 79.2852 179.63L265.613 -48.2193C279.738 -65.4923 301.367 -74.6865 323.499 -72.8258L585.555 -50.7928" stroke="white" stroke-opacity="0.55"/>
<path d="M-377.79 829.416L-51.8223 614.947C-33.9342 603.177 -22.6038 583.59 -21.2527 562.099L2.85083 178.713C3.75215 164.377 9.1166 150.693 18.1807 139.609L204.508 -88.2403C218.634 -105.513 240.263 -114.708 262.394 -112.847L524.451 -90.8138" stroke="white" stroke-opacity="0.55"/>
<path d="M-365.162 837.213L-39.1948 622.743C-21.3067 610.974 -9.97639 591.386 -8.62528 569.896L15.4783 186.51C16.3796 172.174 21.744 158.49 30.8081 147.406L217.136 -80.4437C231.261 -97.7166 252.89 -106.911 275.022 -105.05L537.078 -83.0172" stroke="white" stroke-opacity="0.55"/>
<path d="M-353.497 845.356L-27.5298 630.886C-9.64169 619.117 1.68865 599.529 3.03975 578.039L27.1433 194.653C28.0446 180.316 33.4091 166.633 42.4731 155.549L228.801 -72.3009C242.926 -89.5738 264.555 -98.7681 286.687 -96.9073L548.743 -74.8743" stroke="white" stroke-opacity="0.55"/>
<path d="M-600.771 324.1L-355.242 627.362C-341.769 644.004 -321.161 653.35 -299.642 652.578L84.2546 638.808C98.6098 638.294 112.755 642.284 124.678 650.213L369.77 813.196C388.35 825.551 399.629 846.17 399.957 868.377L403.839 1131.33" stroke="white" stroke-opacity="0.55"/>
<path d="M-607.286 337.434L-361.758 640.695C-348.284 657.337 -327.676 666.684 -306.157 665.912L77.7395 652.142C92.0947 651.627 106.24 655.618 118.163 663.546L363.255 826.529C381.835 838.885 393.114 859.503 393.442 881.71L397.324 1144.66" stroke="white" stroke-opacity="0.55"/>
<path d="M-614.241 349.844L-368.712 653.106C-355.238 669.748 -334.63 679.094 -313.111 678.322L70.7849 664.552C85.1401 664.038 99.2857 668.028 111.208 675.957L356.3 838.94C374.88 851.295 386.16 871.914 386.488 894.121L390.369 1157.07" stroke="white" stroke-opacity="0.55"/>
<path d="M-641.107 401.499L-395.578 704.76C-382.105 721.402 -361.497 730.748 -339.978 729.977L43.9187 716.207C58.2739 715.692 72.4195 719.683 84.3422 727.611L329.434 890.594C348.014 902.95 359.294 923.568 359.621 945.775L363.503 1208.73" stroke="white" stroke-opacity="0.55"/>
<path d="M-647.622 414.833L-402.094 718.094C-388.62 734.736 -368.012 744.082 -346.493 743.311L37.4036 729.541C51.7588 729.026 65.9044 733.017 77.8271 740.945L322.919 903.928C341.499 916.284 352.778 936.902 353.106 959.109L356.988 1222.06" stroke="white" stroke-opacity="0.55"/>
<path d="M-654.576 427.243L-409.048 730.504C-395.574 747.146 -374.966 756.492 -353.447 755.721L30.4495 741.951C44.8047 741.436 58.9503 745.427 70.873 753.355L315.965 916.338C334.545 928.694 345.824 949.312 346.152 971.519L350.034 1234.47" stroke="white" stroke-opacity="0.55"/>
<path d="M-620.768 362.494L-375.239 665.755C-361.765 682.397 -341.157 691.744 -319.638 690.972L64.2581 677.202C78.6133 676.687 92.7589 680.678 104.682 688.606L349.773 851.589C368.353 863.945 379.633 884.563 379.961 906.77L383.842 1169.72" stroke="white" stroke-opacity="0.55"/>
<path d="M-627.283 375.827L-381.754 679.089C-368.28 695.731 -347.672 705.077 -326.153 704.305L57.7429 690.535C72.0981 690.02 86.2437 694.011 98.1664 701.94L343.258 864.923C361.838 877.278 373.118 897.897 373.446 920.104L377.327 1183.06" stroke="white" stroke-opacity="0.55"/>
<path d="M-634.237 388.238L-388.708 691.499C-375.234 708.141 -354.627 717.488 -333.108 716.716L50.7888 702.946C65.144 702.431 79.2896 706.422 91.2123 714.35L336.304 877.333C354.884 889.689 366.164 910.307 366.491 932.514L370.373 1195.47" stroke="white" stroke-opacity="0.55"/>
<path d="M-663.757 439.209L-418.229 742.47C-404.755 759.112 -384.147 768.459 -362.628 767.687L21.2683 753.917C35.6235 753.402 49.7691 757.393 61.6918 765.321L306.783 928.304C325.363 940.66 336.643 961.278 336.971 983.485L340.853 1246.44" stroke="white" stroke-opacity="0.55"/>
<path d="M-670.272 452.543L-424.744 755.805C-411.27 772.447 -390.662 781.793 -369.143 781.021L14.7532 767.251C29.1084 766.737 43.254 770.727 55.1767 778.656L300.268 941.639C318.848 953.994 330.128 974.613 330.456 996.82L334.337 1259.77" stroke="white" stroke-opacity="0.55"/>
<path d="M-677.227 464.952L-431.699 768.214C-418.225 784.856 -397.617 794.202 -376.098 793.43L7.79859 779.66C22.1538 779.145 36.2994 783.136 48.2221 791.065L293.314 954.048C311.894 966.403 323.173 987.022 323.501 1009.23L327.383 1272.18" stroke="white" stroke-opacity="0.55"/>
<path d="M-704.093 516.607L-458.565 819.869C-445.091 836.511 -424.483 845.857 -402.964 845.085L-19.0676 831.315C-4.71242 830.8 9.43319 834.791 21.3559 842.72L266.447 1005.7C285.028 1018.06 296.307 1038.68 296.635 1060.88L300.517 1323.84" stroke="white" stroke-opacity="0.55"/>
<path d="M-710.608 529.941L-465.079 833.203C-451.606 849.845 -430.998 859.191 -409.479 858.419L-25.5823 844.649C-11.2271 844.134 2.91854 848.125 14.8412 856.054L259.933 1019.04C278.513 1031.39 289.793 1052.01 290.12 1074.22L294.002 1337.17" stroke="white" stroke-opacity="0.55"/>
<path d="M-717.563 542.351L-472.034 845.613C-458.56 862.255 -437.952 871.601 -416.433 870.83L-32.5369 857.06C-18.1817 856.545 -4.03605 860.536 7.88664 868.464L252.978 1031.45C271.558 1043.8 282.838 1064.42 283.166 1086.63L287.047 1349.58" stroke="white" stroke-opacity="0.55"/>
<path d="M-683.753 477.602L-438.225 780.864C-424.751 797.506 -404.143 806.852 -382.624 806.08L1.27222 792.31C15.6274 791.795 29.773 795.786 41.6957 803.715L286.787 966.698C305.367 979.053 316.647 999.672 316.975 1021.88L320.857 1284.83" stroke="white" stroke-opacity="0.55"/>
<path d="M-690.269 490.936L-444.741 794.198C-431.267 810.84 -410.659 820.186 -389.14 819.414L-5.24341 805.644C9.1118 805.129 23.2574 809.12 35.1801 817.049L280.272 980.032C298.852 992.387 310.131 1013.01 310.459 1035.21L314.341 1298.17" stroke="white" stroke-opacity="0.55"/>
<path d="M-697.223 503.346L-451.695 806.608C-438.221 823.25 -417.613 832.596 -396.094 831.824L-12.1975 818.055C2.1577 817.54 16.3033 821.53 28.226 829.459L273.318 992.442C291.898 1004.8 303.177 1025.42 303.505 1047.62L307.387 1310.58" stroke="white" stroke-opacity="0.55"/>
<path d="M-726.563 556.705L-481.034 859.967C-467.561 876.609 -446.953 885.955 -425.434 885.183L-41.5374 871.413C-27.1821 870.898 -13.0365 874.889 -1.11385 882.817L243.978 1045.8C262.558 1058.16 273.837 1078.77 274.165 1100.98L278.047 1363.93" stroke="white" stroke-opacity="0.55"/>
<path d="M-733.078 570.039L-487.55 873.301C-474.076 889.943 -453.468 899.289 -431.949 898.517L-48.0525 884.748C-33.6973 884.233 -19.5517 888.224 -7.62899 896.152L237.463 1059.14C256.043 1071.49 267.322 1092.11 267.65 1114.32L271.532 1377.27" stroke="white" stroke-opacity="0.55"/>
<path d="M-740.032 582.449L-494.504 885.71C-481.03 902.352 -460.422 911.699 -438.903 910.927L-55.0066 897.157C-40.6514 896.642 -26.5058 900.633 -14.5831 908.561L230.509 1071.54C249.089 1083.9 260.368 1104.52 260.696 1126.73L264.578 1389.68" stroke="white" stroke-opacity="0.55"/>
<path d="M-766.899 634.104L-521.37 937.365C-507.897 954.007 -487.289 963.354 -465.77 962.582L-81.8733 948.812C-67.5181 948.297 -53.3725 952.288 -41.4498 960.216L203.642 1123.2C222.222 1135.55 233.502 1156.17 233.829 1178.38L237.711 1441.33" stroke="white" stroke-opacity="0.55"/>
<path d="M-773.414 647.438L-527.886 950.7C-514.412 967.342 -493.804 976.688 -472.285 975.916L-88.3884 962.147C-74.0332 961.632 -59.8876 965.622 -47.9649 973.551L197.127 1136.53C215.707 1148.89 226.986 1169.51 227.314 1191.72L231.196 1454.67" stroke="white" stroke-opacity="0.55"/>
<path d="M-780.368 659.848L-534.84 963.109C-521.366 979.751 -500.758 989.098 -479.239 988.326L-95.3425 974.556C-80.9873 974.041 -66.8417 978.032 -54.919 985.96L190.173 1148.94C208.753 1161.3 220.032 1181.92 220.36 1204.12L224.242 1467.08" stroke="white" stroke-opacity="0.55"/>
<path d="M-746.56 595.098L-501.031 898.36C-487.557 915.002 -466.949 924.348 -445.43 923.576L-61.5339 909.806C-47.1787 909.292 -33.0331 913.282 -21.1104 921.211L223.981 1084.19C242.561 1096.55 253.841 1117.17 254.169 1139.37L258.05 1402.33" stroke="white" stroke-opacity="0.55"/>
<path d="M-753.075 608.433L-507.546 911.695C-494.072 928.337 -473.464 937.683 -451.945 936.911L-68.0491 923.141C-53.6939 922.626 -39.5483 926.617 -27.6256 934.546L217.466 1097.53C236.046 1109.88 247.326 1130.5 247.654 1152.71L251.535 1415.66" stroke="white" stroke-opacity="0.55"/>
<path d="M-760.029 620.842L-514.5 924.104C-501.026 940.746 -480.419 950.092 -458.9 949.32L-75.0032 935.551C-60.648 935.036 -46.5024 939.027 -34.5797 946.955L210.512 1109.94C229.092 1122.29 240.372 1142.91 240.699 1165.12L244.581 1428.07" stroke="white" stroke-opacity="0.55"/>
<path d="M-789.549 671.814L-544.021 975.075C-530.547 991.717 -509.939 1001.06 -488.42 1000.29L-104.524 986.522C-90.1685 986.007 -76.0229 989.998 -64.1002 997.926L180.991 1160.91C199.571 1173.27 210.851 1193.88 211.179 1216.09L215.061 1479.04" stroke="white" stroke-opacity="0.55"/>
<path d="M-796.064 685.148L-550.536 988.41C-537.062 1005.05 -516.454 1014.4 -494.935 1013.63L-111.039 999.857C-96.6836 999.342 -82.538 1003.33 -70.6153 1011.26L174.476 1174.24C193.056 1186.6 204.336 1207.22 204.664 1229.43L208.545 1492.38" stroke="white" stroke-opacity="0.55"/>
<path d="M-803.019 697.558L-557.49 1000.82C-544.016 1017.46 -523.408 1026.81 -501.889 1026.04L-117.993 1012.27C-103.638 1011.75 -89.4921 1015.74 -77.5694 1023.67L167.522 1186.65C186.102 1199.01 197.382 1219.63 197.71 1241.83L201.591 1504.79" stroke="white" stroke-opacity="0.55"/>
<path d="M-829.885 749.212L-584.356 1052.47C-570.882 1069.12 -550.274 1078.46 -528.756 1077.69L-144.859 1063.92C-130.504 1063.41 -116.358 1067.4 -104.436 1075.32L140.656 1238.31C159.236 1250.66 170.516 1271.28 170.843 1293.49L174.725 1556.44" stroke="white" stroke-opacity="0.55"/>
<path d="M-836.4 762.547L-590.872 1065.81C-577.398 1082.45 -556.79 1091.8 -535.271 1091.02L-151.375 1077.25C-137.02 1076.74 -122.874 1080.73 -110.951 1088.66L134.14 1251.64C152.72 1264 164 1284.62 164.328 1306.82L168.21 1569.78" stroke="white" stroke-opacity="0.55"/>
<path d="M-843.355 774.956L-597.826 1078.22C-584.352 1094.86 -563.744 1104.21 -542.225 1103.43L-158.329 1089.66C-143.974 1089.15 -129.828 1093.14 -117.905 1101.07L127.186 1264.05C145.766 1276.41 157.046 1297.03 157.374 1319.23L161.255 1582.19" stroke="white" stroke-opacity="0.55"/>
<path d="M-809.546 710.207L-564.017 1013.47C-550.544 1030.11 -529.936 1039.46 -508.417 1038.69L-124.52 1024.92C-110.165 1024.4 -96.0194 1028.39 -84.0968 1036.32L160.995 1199.3C179.575 1211.66 190.855 1232.28 191.182 1254.48L195.064 1517.44" stroke="white" stroke-opacity="0.55"/>
<path d="M-816.061 723.541L-570.532 1026.8C-557.058 1043.45 -536.45 1052.79 -514.931 1052.02L-131.035 1038.25C-116.68 1037.73 -102.534 1041.73 -90.6114 1049.65L154.48 1212.64C173.06 1224.99 184.34 1245.61 184.668 1267.82L188.549 1530.77" stroke="white" stroke-opacity="0.55"/>
<path d="M-823.015 735.951L-577.487 1039.21C-564.013 1055.85 -543.405 1065.2 -521.886 1064.43L-137.99 1050.66C-123.634 1050.14 -109.489 1054.14 -97.566 1062.06L147.526 1225.05C166.106 1237.4 177.385 1258.02 177.713 1280.23L181.595 1543.18" stroke="white" stroke-opacity="0.55"/>
<path d="M421.519 988.58L733.96 842.858C753.277 833.848 767.304 816.211 771.837 795.232L842.933 466.146C845.958 452.142 853.265 439.44 863.82 429.836L1053.85 256.923C1070.3 241.954 1092.94 236.024 1114.48 241.042L1338.61 293.262" stroke="white" stroke-opacity="0.55"/>
<path d="M431.598 997.074L744.038 851.352C763.356 842.342 777.383 824.705 781.915 803.726L853.011 474.64C856.037 460.636 863.343 447.934 873.898 438.33L1063.93 265.417C1080.38 250.447 1103.02 244.518 1124.56 249.536L1348.69 301.756" stroke="white" stroke-opacity="0.55"/>
<path d="M440.783 1005.75L753.223 860.028C772.541 851.018 786.568 833.381 791.1 812.402L862.196 483.316C865.222 469.312 872.528 456.61 883.083 447.006L1073.12 274.092C1089.57 259.123 1112.2 253.194 1133.74 258.211L1357.88 310.432" stroke="white" stroke-opacity="0.55"/>
<path d="M479.469 1040.06L791.91 894.34C811.227 885.33 825.254 867.693 829.786 846.714L900.882 517.628C903.908 503.624 911.215 490.922 921.769 481.318L1111.8 308.405C1128.25 293.435 1150.89 287.506 1172.43 292.524L1396.56 344.744" stroke="white" stroke-opacity="0.55"/>
<path d="M489.547 1048.56L801.988 902.834C821.306 893.825 835.333 876.187 839.865 855.208L910.961 526.122C913.986 512.118 921.293 499.416 931.848 489.812L1121.88 316.899C1138.33 301.93 1160.97 296 1182.51 301.018L1406.64 353.238" stroke="white" stroke-opacity="0.55"/>
<path d="M498.732 1057.23L811.173 911.51C830.49 902.5 844.517 884.863 849.049 863.884L920.146 534.798C923.171 520.794 930.478 508.092 941.033 498.488L1131.06 325.574C1147.52 310.605 1170.15 304.675 1191.69 309.693L1415.83 361.913" stroke="white" stroke-opacity="0.55"/>
<path d="M450.268 1014.11L762.709 868.385C782.026 859.376 796.053 841.738 800.586 820.76L871.682 491.674C874.707 477.669 882.014 464.967 892.569 455.363L1082.6 282.45C1099.05 267.481 1121.69 261.551 1143.23 266.569L1367.36 318.789" stroke="white" stroke-opacity="0.55"/>
<path d="M460.346 1022.6L772.787 876.879C792.105 867.87 806.131 850.232 810.664 829.254L881.76 500.168C884.785 486.164 892.092 473.462 902.647 463.858L1092.68 290.944C1109.13 275.975 1131.77 270.045 1153.3 275.063L1377.44 327.283" stroke="white" stroke-opacity="0.55"/>
<path d="M469.531 1031.28L781.972 885.555C801.29 876.545 815.316 858.908 819.849 837.929L890.945 508.843C893.97 494.839 901.277 482.137 911.832 472.533L1101.86 299.619C1118.32 284.65 1140.95 278.721 1162.49 283.738L1386.63 335.959" stroke="white" stroke-opacity="0.55"/>
<path d="M507.045 1067.74L819.486 922.015C838.804 913.005 852.831 895.368 857.363 874.389L928.459 545.303C931.485 531.299 938.791 518.597 949.346 508.993L1139.38 336.08C1155.83 321.111 1178.47 315.181 1200 320.199L1424.14 372.419" stroke="white" stroke-opacity="0.55"/>
<path d="M517.125 1076.23L829.565 930.509C848.883 921.5 862.91 903.862 867.442 882.884L938.538 553.798C941.564 539.793 948.87 527.091 959.425 517.487L1149.46 344.574C1165.91 329.605 1188.55 323.675 1210.08 328.693L1434.22 380.913" stroke="white" stroke-opacity="0.55"/>
<path d="M526.308 1084.91L838.749 939.185C858.066 930.175 872.093 912.538 876.626 891.559L947.722 562.473C950.747 548.469 958.054 535.767 968.609 526.163L1158.64 353.249C1175.09 338.28 1197.73 332.35 1219.27 337.368L1443.4 389.588" stroke="white" stroke-opacity="0.55"/>
<path d="M564.995 1119.22L877.436 973.497C896.753 964.487 910.78 946.85 915.313 925.871L986.409 596.785C989.434 582.781 996.741 570.079 1007.3 560.475L1197.33 387.562C1213.78 372.592 1236.42 366.663 1257.95 371.681L1482.09 423.901" stroke="white" stroke-opacity="0.55"/>
<path d="M575.073 1127.71L887.514 981.991C906.832 972.981 920.858 955.344 925.391 934.365L996.487 605.279C999.512 591.275 1006.82 578.573 1017.37 568.969L1207.41 396.056C1223.86 381.086 1246.49 375.157 1268.03 380.175L1492.17 432.395" stroke="white" stroke-opacity="0.55"/>
<path d="M584.258 1136.39L896.699 990.667C916.017 981.657 930.044 964.02 934.576 943.041L1005.67 613.955C1008.7 599.951 1016 587.249 1026.56 577.645L1216.59 404.731C1233.04 389.762 1255.68 383.832 1277.22 388.85L1501.35 441.07" stroke="white" stroke-opacity="0.55"/>
<path d="M535.794 1093.26L848.235 947.542C867.552 938.532 881.579 920.895 886.111 899.916L957.208 570.83C960.233 556.826 967.54 544.124 978.095 534.52L1168.13 361.607C1184.58 346.637 1207.21 340.708 1228.75 345.726L1452.89 397.946" stroke="white" stroke-opacity="0.55"/>
<path d="M545.873 1101.76L858.313 956.036C877.631 947.027 891.658 929.389 896.19 908.411L967.286 579.325C970.312 565.32 977.618 552.619 988.173 543.015L1178.21 370.101C1194.66 355.132 1217.29 349.202 1238.83 354.22L1462.97 406.44" stroke="white" stroke-opacity="0.55"/>
<path d="M555.057 1110.43L867.498 964.712C886.815 955.702 900.842 938.065 905.375 917.086L976.471 588C979.496 573.996 986.803 561.294 997.358 551.69L1187.39 378.776C1203.84 363.807 1226.48 357.877 1248.02 362.895L1472.15 415.115" stroke="white" stroke-opacity="0.55"/>
<path d="M594.672 1147.25L907.113 1001.53C926.43 992.519 940.457 974.881 944.989 953.903L1016.09 624.817C1019.11 610.812 1026.42 598.11 1036.97 588.506L1227 415.593C1243.46 400.624 1266.09 394.694 1287.63 399.712L1511.77 451.932" stroke="white" stroke-opacity="0.55"/>
<path d="M604.751 1155.74L917.191 1010.02C936.509 1001.01 950.536 983.376 955.068 962.397L1026.16 633.311C1029.19 619.307 1036.5 606.605 1047.05 597.001L1237.08 424.087C1253.53 409.118 1276.17 403.188 1297.71 408.206L1521.85 460.426" stroke="white" stroke-opacity="0.55"/>
<path d="M613.935 1164.42L926.376 1018.7C945.693 1009.69 959.72 992.051 964.253 971.072L1035.35 641.986C1038.37 627.982 1045.68 615.28 1056.24 605.676L1246.27 432.763C1262.72 417.793 1285.36 411.864 1306.89 416.882L1531.03 469.102" stroke="white" stroke-opacity="0.55"/>
<path d="M652.622 1198.73L965.062 1053.01C984.38 1044 998.407 1026.36 1002.94 1005.38L1074.04 676.299C1077.06 662.295 1084.37 649.593 1094.92 639.989L1284.95 467.075C1301.41 452.106 1324.04 446.176 1345.58 451.194L1569.72 503.414" stroke="white" stroke-opacity="0.55"/>
<path d="M662.7 1207.23L975.141 1061.5C994.459 1052.49 1008.49 1034.86 1013.02 1013.88L1084.11 684.793C1087.14 670.789 1094.45 658.087 1105 648.483L1295.03 475.569C1311.48 460.6 1334.12 454.67 1355.66 459.688L1579.8 511.908" stroke="white" stroke-opacity="0.55"/>
<path d="M671.885 1215.9L984.326 1070.18C1003.64 1061.17 1017.67 1043.53 1022.2 1022.55L1093.3 693.468C1096.32 679.464 1103.63 666.762 1114.19 657.158L1304.22 484.245C1320.67 469.276 1343.31 463.346 1364.84 468.364L1588.98 520.584" stroke="white" stroke-opacity="0.55"/>
<path d="M623.42 1172.78L935.861 1027.06C955.179 1018.05 969.206 1000.41 973.738 979.43L1044.83 650.344C1047.86 636.34 1055.17 623.638 1065.72 614.034L1255.75 441.12C1272.2 426.151 1294.84 420.221 1316.38 425.239L1540.52 477.459" stroke="white" stroke-opacity="0.55"/>
<path d="M633.499 1181.27L945.94 1035.55C965.257 1026.54 979.284 1008.9 983.817 987.924L1054.91 658.838C1057.94 644.834 1065.24 632.132 1075.8 622.528L1265.83 449.614C1282.28 434.645 1304.92 428.715 1326.46 433.733L1550.59 485.953" stroke="white" stroke-opacity="0.55"/>
<path d="M642.684 1189.95L955.124 1044.23C974.442 1035.22 988.469 1017.58 993.001 996.599L1064.1 667.513C1067.12 653.509 1074.43 640.807 1084.98 631.203L1275.02 458.29C1291.47 443.32 1314.1 437.391 1335.64 442.409L1559.78 494.629" stroke="white" stroke-opacity="0.55"/>
<path d="M680.198 1226.41L992.639 1080.69C1011.96 1071.68 1025.98 1054.04 1030.52 1033.06L1101.61 703.974C1104.64 689.969 1111.94 677.267 1122.5 667.663L1312.53 494.75C1328.98 479.781 1351.62 473.851 1373.16 478.869L1597.29 531.089" stroke="white" stroke-opacity="0.55"/>
<path d="M690.277 1234.9L1002.72 1089.18C1022.04 1080.17 1036.06 1062.53 1040.59 1041.55L1111.69 712.468C1114.72 698.464 1122.02 685.762 1132.58 676.158L1322.61 503.244C1339.06 488.275 1361.7 482.345 1383.24 487.363L1607.37 539.583" stroke="white" stroke-opacity="0.55"/>
<path d="M699.462 1243.58L1011.9 1097.86C1031.22 1088.85 1045.25 1071.21 1049.78 1050.23L1120.88 721.143C1123.9 707.139 1131.21 694.437 1141.76 684.833L1331.79 511.92C1348.25 496.95 1370.88 491.021 1392.42 496.039L1616.56 548.259" stroke="white" stroke-opacity="0.55"/>
<path d="M738.148 1277.89L1050.59 1132.17C1069.91 1123.16 1083.93 1105.52 1088.46 1084.54L1159.56 755.455C1162.59 741.451 1169.89 728.749 1180.45 719.145L1370.48 546.232C1386.93 531.262 1409.57 525.333 1431.11 530.351L1655.24 582.571" stroke="white" stroke-opacity="0.55"/>
<path d="M748.226 1286.38L1060.67 1140.66C1079.98 1131.65 1094.01 1114.01 1098.54 1093.04L1169.64 763.95C1172.67 749.945 1179.97 737.244 1190.53 727.64L1380.56 554.726C1397.01 539.757 1419.65 533.827 1441.18 538.845L1665.32 591.065" stroke="white" stroke-opacity="0.55"/>
<path d="M757.411 1295.06L1069.85 1149.34C1089.17 1140.33 1103.2 1122.69 1107.73 1101.71L1178.82 772.625C1181.85 758.621 1189.16 745.919 1199.71 736.315L1389.74 563.401C1406.19 548.432 1428.83 542.503 1450.37 547.52L1674.51 599.741" stroke="white" stroke-opacity="0.55"/>
<path d="M708.947 1251.93L1021.39 1106.21C1040.71 1097.2 1054.73 1079.57 1059.26 1058.59L1130.36 729.501C1133.39 715.497 1140.69 702.795 1151.25 693.191L1341.28 520.277C1357.73 505.308 1380.37 499.378 1401.9 504.396L1626.04 556.616" stroke="white" stroke-opacity="0.55"/>
<path d="M719.025 1260.43L1031.47 1114.71C1050.78 1105.7 1064.81 1088.06 1069.34 1067.08L1140.44 737.995C1143.46 723.991 1150.77 711.289 1161.33 701.685L1351.36 528.771C1367.81 513.802 1390.45 507.872 1411.98 512.89L1636.12 565.11" stroke="white" stroke-opacity="0.55"/>
<path d="M728.21 1269.1L1040.65 1123.38C1059.97 1114.37 1074 1096.74 1078.53 1075.76L1149.62 746.67C1152.65 732.666 1159.96 719.964 1170.51 710.36L1360.54 537.447C1376.99 522.477 1399.63 516.548 1421.17 521.566L1645.31 573.786" stroke="white" stroke-opacity="0.55"/>
</g>
<defs>
<clipPath id="clip0_461_2">
<rect width="864" height="969" fill="white"/>
</clipPath>
</defs>
</svg>
