<svg width="223" height="72" viewBox="0 0 223 72" fill="none" xmlns="http://www.w3.org/2000/svg">
<rect x="9.5" y="9.5" width="204" height="54" rx="27" fill="white"/>
<rect x="0.5" y="0.5" width="222" height="71" rx="35.5" stroke="white" stroke-dasharray="8 8"/>
<path d="M61.6844 42.292H67.3244V44.5H58.9484V27.82H61.6844V42.292ZM81.7325 37.564C81.7325 38.06 81.7005 38.508 81.6365 38.908H71.5325C71.6125 39.964 72.0045 40.812 72.7085 41.452C73.4125 42.092 74.2765 42.412 75.3005 42.412C76.7725 42.412 77.8125 41.796 78.4205 40.564H81.3725C80.9725 41.78 80.2445 42.78 79.1885 43.564C78.1485 44.332 76.8525 44.716 75.3005 44.716C74.0365 44.716 72.9005 44.436 71.8925 43.876C70.9005 43.3 70.1165 42.5 69.5405 41.476C68.9805 40.436 68.7005 39.236 68.7005 37.876C68.7005 36.516 68.9725 35.324 69.5165 34.3C70.0765 33.26 70.8525 32.46 71.8445 31.9C72.8525 31.34 74.0045 31.06 75.3005 31.06C76.5485 31.06 77.6605 31.332 78.6365 31.876C79.6125 32.42 80.3725 33.188 80.9165 34.18C81.4605 35.156 81.7325 36.284 81.7325 37.564ZM78.8765 36.7C78.8605 35.692 78.5005 34.884 77.7965 34.276C77.0925 33.668 76.2205 33.364 75.1805 33.364C74.2365 33.364 73.4285 33.668 72.7565 34.276C72.0845 34.868 71.6845 35.676 71.5565 36.7H78.8765ZM87.617 33.508V40.828C87.617 41.324 87.729 41.684 87.953 41.908C88.193 42.116 88.593 42.22 89.153 42.22H90.833V44.5H88.673C87.441 44.5 86.497 44.212 85.841 43.636C85.185 43.06 84.857 42.124 84.857 40.828V33.508H83.297V31.276H84.857V27.988H87.617V31.276H90.833V33.508H87.617ZM93.7867 27.82H96.7627L94.2427 33.532H92.3227L93.7867 27.82ZM103.967 44.716C102.927 44.716 101.991 44.532 101.159 44.164C100.343 43.78 99.6952 43.268 99.2152 42.628C98.7352 41.972 98.4792 41.244 98.4472 40.444H101.279C101.327 41.004 101.591 41.476 102.071 41.86C102.567 42.228 103.183 42.412 103.919 42.412C104.687 42.412 105.279 42.268 105.695 41.98C106.127 41.676 106.343 41.292 106.343 40.828C106.343 40.332 106.103 39.964 105.623 39.724C105.159 39.484 104.415 39.22 103.391 38.932C102.399 38.66 101.591 38.396 100.967 38.14C100.343 37.884 99.7992 37.492 99.3352 36.964C98.8872 36.436 98.6632 35.74 98.6632 34.876C98.6632 34.172 98.8712 33.532 99.2872 32.956C99.7032 32.364 100.295 31.9 101.063 31.564C101.847 31.228 102.743 31.06 103.751 31.06C105.255 31.06 106.463 31.444 107.375 32.212C108.303 32.964 108.799 33.996 108.863 35.308H106.127C106.079 34.716 105.839 34.244 105.407 33.892C104.975 33.54 104.391 33.364 103.655 33.364C102.935 33.364 102.383 33.5 101.999 33.772C101.615 34.044 101.423 34.404 101.423 34.852C101.423 35.204 101.551 35.5 101.807 35.74C102.063 35.98 102.375 36.172 102.743 36.316C103.111 36.444 103.655 36.612 104.375 36.82C105.335 37.076 106.119 37.34 106.727 37.612C107.351 37.868 107.887 38.252 108.335 38.764C108.783 39.276 109.015 39.956 109.031 40.804C109.031 41.556 108.823 42.228 108.407 42.82C107.991 43.412 107.399 43.876 106.631 44.212C105.879 44.548 104.991 44.716 103.967 44.716ZM128.998 27.82V30.052H124.558V44.5H121.822V30.052H117.358V27.82H128.998ZM130.857 37.828C130.857 36.5 131.129 35.324 131.673 34.3C132.233 33.276 132.985 32.484 133.929 31.924C134.889 31.348 135.945 31.06 137.097 31.06C138.137 31.06 139.041 31.268 139.809 31.684C140.593 32.084 141.217 32.588 141.681 33.196V31.276H144.441V44.5H141.681V42.532C141.217 43.156 140.585 43.676 139.785 44.092C138.985 44.508 138.073 44.716 137.049 44.716C135.913 44.716 134.873 44.428 133.929 43.852C132.985 43.26 132.233 42.444 131.673 41.404C131.129 40.348 130.857 39.156 130.857 37.828ZM141.681 37.876C141.681 36.964 141.489 36.172 141.105 35.5C140.737 34.828 140.249 34.316 139.641 33.964C139.033 33.612 138.377 33.436 137.673 33.436C136.969 33.436 136.313 33.612 135.705 33.964C135.097 34.3 134.601 34.804 134.217 35.476C133.849 36.132 133.665 36.916 133.665 37.828C133.665 38.74 133.849 39.54 134.217 40.228C134.601 40.916 135.097 41.444 135.705 41.812C136.329 42.164 136.985 42.34 137.673 42.34C138.377 42.34 139.033 42.164 139.641 41.812C140.249 41.46 140.737 40.948 141.105 40.276C141.489 39.588 141.681 38.788 141.681 37.876ZM150.77 26.74V44.5H148.034V26.74H150.77ZM159.595 37.9L165.691 44.5H161.995L157.099 38.812V44.5H154.363V26.74H157.099V37.06L161.899 31.276H165.691L159.595 37.9Z" fill="black"/>
</svg>
