<svg width="1728" height="969" viewBox="0 0 1728 969" fill="none" xmlns="http://www.w3.org/2000/svg">
<g clip-path="url(#clip0_435_35)">
<rect width="1728" height="969" fill="black"/>
<path d="M1045.52 988.58L1357.96 842.858C1377.28 833.848 1391.3 816.211 1395.84 795.232L1466.93 466.146C1469.96 452.142 1477.26 439.44 1487.82 429.836L1677.85 256.923C1694.3 241.954 1716.94 236.024 1738.48 241.042L1962.61 293.262" stroke="white" stroke-opacity="0.55"/>
<path d="M1055.6 997.074L1368.04 851.352C1387.36 842.342 1401.38 824.705 1405.91 803.726L1477.01 474.64C1480.04 460.636 1487.34 447.934 1497.9 438.33L1687.93 265.417C1704.38 250.447 1727.02 244.518 1748.55 249.536L1972.69 301.756" stroke="white" stroke-opacity="0.55"/>
<path d="M1064.78 1005.75L1377.22 860.028C1396.54 851.018 1410.57 833.381 1415.1 812.402L1486.2 483.316C1489.22 469.312 1496.53 456.61 1507.08 447.006L1697.11 274.092C1713.57 259.123 1736.2 253.194 1757.74 258.211L1981.88 310.432" stroke="white" stroke-opacity="0.55"/>
<path d="M1103.47 1040.06L1415.91 894.34C1435.23 885.33 1449.25 867.693 1453.79 846.714L1524.88 517.628C1527.91 503.624 1535.21 490.922 1545.77 481.318L1735.8 308.405C1752.25 293.435 1774.89 287.506 1796.43 292.524L2020.56 344.744" stroke="white" stroke-opacity="0.55"/>
<path d="M1113.55 1048.56L1425.99 902.834C1445.3 893.825 1459.33 876.187 1463.86 855.208L1534.96 526.122C1537.99 512.118 1545.29 499.416 1555.85 489.812L1745.88 316.899C1762.33 301.93 1784.97 296 1806.5 301.018L2030.64 353.238" stroke="white" stroke-opacity="0.55"/>
<path d="M1122.73 1057.23L1435.17 911.51C1454.49 902.5 1468.52 884.863 1473.05 863.884L1544.14 534.798C1547.17 520.794 1554.48 508.092 1565.03 498.488L1755.06 325.574C1771.52 310.605 1794.15 304.675 1815.69 309.693L2039.83 361.913" stroke="white" stroke-opacity="0.55"/>
<path d="M1074.27 1014.11L1386.71 868.385C1406.03 859.376 1420.05 841.738 1424.58 820.76L1495.68 491.674C1498.71 477.669 1506.01 464.967 1516.57 455.363L1706.6 282.45C1723.05 267.481 1745.69 261.551 1767.23 266.569L1991.36 318.789" stroke="white" stroke-opacity="0.55"/>
<path d="M1084.35 1022.6L1396.79 876.879C1416.1 867.87 1430.13 850.232 1434.66 829.254L1505.76 500.168C1508.78 486.164 1516.09 473.462 1526.65 463.858L1716.68 290.944C1733.13 275.975 1755.77 270.045 1777.3 275.063L2001.44 327.283" stroke="white" stroke-opacity="0.55"/>
<path d="M1093.53 1031.28L1405.97 885.555C1425.29 876.545 1439.32 858.908 1443.85 837.929L1514.94 508.843C1517.97 494.839 1525.28 482.137 1535.83 472.533L1725.86 299.619C1742.31 284.65 1764.95 278.721 1786.49 283.738L2010.63 335.959" stroke="white" stroke-opacity="0.55"/>
<path d="M1131.04 1067.74L1443.49 922.015C1462.8 913.005 1476.83 895.368 1481.36 874.389L1552.46 545.303C1555.48 531.299 1562.79 518.597 1573.35 508.993L1763.38 336.08C1779.83 321.111 1802.47 315.181 1824 320.199L2048.14 372.419" stroke="white" stroke-opacity="0.55"/>
<path d="M1141.12 1076.23L1453.56 930.509C1472.88 921.5 1486.91 903.862 1491.44 882.884L1562.54 553.798C1565.56 539.793 1572.87 527.091 1583.42 517.487L1773.46 344.574C1789.91 329.605 1812.54 323.675 1834.08 328.693L2058.22 380.913" stroke="white" stroke-opacity="0.55"/>
<path d="M1150.31 1084.91L1462.75 939.185C1482.07 930.175 1496.09 912.538 1500.62 891.559L1571.72 562.473C1574.75 548.469 1582.05 535.767 1592.61 526.163L1782.64 353.249C1799.09 338.28 1821.73 332.35 1843.27 337.368L2067.4 389.588" stroke="white" stroke-opacity="0.55"/>
<path d="M1188.99 1119.22L1501.43 973.497C1520.75 964.487 1534.78 946.85 1539.31 925.871L1610.41 596.785C1613.43 582.781 1620.74 570.079 1631.29 560.475L1821.33 387.562C1837.78 372.592 1860.41 366.663 1881.95 371.681L2106.09 423.901" stroke="white" stroke-opacity="0.55"/>
<path d="M1199.07 1127.71L1511.51 981.991C1530.83 972.981 1544.86 955.344 1549.39 934.365L1620.49 605.279C1623.51 591.275 1630.82 578.573 1641.37 568.969L1831.41 396.056C1847.86 381.086 1870.49 375.157 1892.03 380.175L2116.17 432.395" stroke="white" stroke-opacity="0.55"/>
<path d="M1208.26 1136.39L1520.7 990.667C1540.02 981.657 1554.04 964.02 1558.57 943.041L1629.67 613.955C1632.7 599.951 1640 587.249 1650.56 577.645L1840.59 404.731C1857.04 389.762 1879.68 383.832 1901.22 388.85L2125.35 441.07" stroke="white" stroke-opacity="0.55"/>
<path d="M1159.79 1093.26L1472.23 947.542C1491.55 938.532 1505.58 920.895 1510.11 899.916L1581.21 570.83C1584.23 556.826 1591.54 544.124 1602.09 534.52L1792.13 361.607C1808.58 346.637 1831.21 340.708 1852.75 345.726L2076.89 397.946" stroke="white" stroke-opacity="0.55"/>
<path d="M1169.87 1101.76L1482.31 956.036C1501.63 947.027 1515.66 929.389 1520.19 908.411L1591.29 579.325C1594.31 565.32 1601.62 552.619 1612.17 543.015L1802.2 370.101C1818.66 355.132 1841.29 349.202 1862.83 354.22L2086.97 406.44" stroke="white" stroke-opacity="0.55"/>
<path d="M1179.06 1110.43L1491.5 964.712C1510.81 955.702 1524.84 938.065 1529.37 917.086L1600.47 588C1603.5 573.996 1610.8 561.294 1621.36 551.69L1811.39 378.776C1827.84 363.807 1850.48 357.877 1872.01 362.895L2096.15 415.115" stroke="white" stroke-opacity="0.55"/>
<path d="M1218.67 1147.25L1531.11 1001.53C1550.43 992.519 1564.46 974.881 1568.99 953.903L1640.08 624.817C1643.11 610.812 1650.42 598.11 1660.97 588.506L1851 415.593C1867.46 400.624 1890.09 394.694 1911.63 399.712L2135.77 451.932" stroke="white" stroke-opacity="0.55"/>
<path d="M1228.75 1155.74L1541.19 1010.02C1560.51 1001.01 1574.53 983.376 1579.07 962.397L1650.16 633.311C1653.19 619.307 1660.5 606.605 1671.05 597.001L1861.08 424.087C1877.53 409.118 1900.17 403.188 1921.71 408.206L2145.85 460.426" stroke="white" stroke-opacity="0.55"/>
<path d="M1237.93 1164.42L1550.37 1018.7C1569.69 1009.69 1583.72 992.051 1588.25 971.072L1659.35 641.986C1662.37 627.982 1669.68 615.28 1680.23 605.676L1870.27 432.763C1886.72 417.793 1909.35 411.864 1930.89 416.882L2155.03 469.102" stroke="white" stroke-opacity="0.55"/>
<path d="M1276.62 1198.73L1589.06 1053.01C1608.38 1044 1622.41 1026.36 1626.94 1005.38L1698.03 676.299C1701.06 662.295 1708.37 649.593 1718.92 639.989L1908.95 467.075C1925.4 452.106 1948.04 446.176 1969.58 451.194L2193.72 503.414" stroke="white" stroke-opacity="0.55"/>
<path d="M1286.7 1207.23L1599.14 1061.5C1618.46 1052.49 1632.48 1034.86 1637.02 1013.88L1708.11 684.793C1711.14 670.789 1718.44 658.087 1729 648.483L1919.03 475.569C1935.48 460.6 1958.12 454.67 1979.66 459.688L2203.8 511.908" stroke="white" stroke-opacity="0.55"/>
<path d="M1295.88 1215.9L1608.32 1070.18C1627.64 1061.17 1641.67 1043.53 1646.2 1022.55L1717.3 693.468C1720.32 679.464 1727.63 666.762 1738.18 657.158L1928.22 484.245C1944.67 469.276 1967.3 463.346 1988.84 468.364L2212.98 520.584" stroke="white" stroke-opacity="0.55"/>
<path d="M1247.42 1172.78L1559.86 1027.06C1579.18 1018.05 1593.2 1000.41 1597.74 979.43L1668.83 650.344C1671.86 636.34 1679.17 623.638 1689.72 614.034L1879.75 441.12C1896.2 426.151 1918.84 420.221 1940.38 425.239L2164.52 477.459" stroke="white" stroke-opacity="0.55"/>
<path d="M1257.5 1181.27L1569.94 1035.55C1589.26 1026.54 1603.28 1008.9 1607.82 987.924L1678.91 658.838C1681.94 644.834 1689.24 632.132 1699.8 622.528L1889.83 449.614C1906.28 434.645 1928.92 428.715 1950.46 433.733L2174.59 485.953" stroke="white" stroke-opacity="0.55"/>
<path d="M1266.68 1189.95L1579.12 1044.23C1598.44 1035.22 1612.47 1017.58 1617 996.599L1688.1 667.513C1691.12 653.509 1698.43 640.807 1708.98 631.203L1899.02 458.29C1915.47 443.32 1938.1 437.391 1959.64 442.409L2183.78 494.629" stroke="white" stroke-opacity="0.55"/>
<path d="M1304.2 1226.41L1616.64 1080.69C1635.96 1071.68 1649.98 1054.04 1654.51 1033.06L1725.61 703.974C1728.64 689.969 1735.94 677.267 1746.5 667.663L1936.53 494.75C1952.98 479.781 1975.62 473.851 1997.15 478.869L2221.29 531.089" stroke="white" stroke-opacity="0.55"/>
<path d="M1314.28 1234.9L1626.72 1089.18C1646.03 1080.17 1660.06 1062.53 1664.59 1041.55L1735.69 712.468C1738.71 698.464 1746.02 685.762 1756.58 676.158L1946.61 503.244C1963.06 488.275 1985.7 482.345 2007.23 487.363L2231.37 539.583" stroke="white" stroke-opacity="0.55"/>
<path d="M1323.46 1243.58L1635.9 1097.86C1655.22 1088.85 1669.25 1071.21 1673.78 1050.23L1744.87 721.143C1747.9 707.139 1755.21 694.437 1765.76 684.833L1955.79 511.92C1972.24 496.95 1994.88 491.021 2016.42 496.039L2240.56 548.259" stroke="white" stroke-opacity="0.55"/>
<path d="M1362.15 1277.89L1674.59 1132.17C1693.9 1123.16 1707.93 1105.52 1712.46 1084.54L1783.56 755.455C1786.59 741.451 1793.89 728.749 1804.45 719.145L1994.48 546.232C2010.93 531.262 2033.57 525.333 2055.1 530.351L2279.24 582.571" stroke="white" stroke-opacity="0.55"/>
<path d="M1372.23 1286.38L1684.67 1140.66C1703.98 1131.65 1718.01 1114.01 1722.54 1093.04L1793.64 763.95C1796.66 749.945 1803.97 737.244 1814.53 727.64L2004.56 554.726C2021.01 539.757 2043.65 533.827 2065.18 538.845L2289.32 591.065" stroke="white" stroke-opacity="0.55"/>
<path d="M1381.41 1295.06L1693.85 1149.34C1713.17 1140.33 1727.19 1122.69 1731.73 1101.71L1802.82 772.625C1805.85 758.621 1813.16 745.919 1823.71 736.315L2013.74 563.401C2030.19 548.432 2052.83 542.503 2074.37 547.52L2298.51 599.741" stroke="white" stroke-opacity="0.55"/>
<path d="M1332.95 1251.93L1645.39 1106.21C1664.7 1097.2 1678.73 1079.57 1683.26 1058.59L1754.36 729.501C1757.38 715.497 1764.69 702.795 1775.25 693.191L1965.28 520.277C1981.73 505.308 2004.37 499.378 2025.9 504.396L2250.04 556.616" stroke="white" stroke-opacity="0.55"/>
<path d="M1343.02 1260.43L1655.46 1114.71C1674.78 1105.7 1688.81 1088.06 1693.34 1067.08L1764.44 737.995C1767.46 723.991 1774.77 711.289 1785.32 701.685L1975.36 528.771C1991.81 513.802 2014.44 507.872 2035.98 512.89L2260.12 565.11" stroke="white" stroke-opacity="0.55"/>
<path d="M1352.21 1269.1L1664.65 1123.38C1683.97 1114.37 1697.99 1096.74 1702.53 1075.76L1773.62 746.67C1776.65 732.666 1783.95 719.964 1794.51 710.36L1984.54 537.447C2000.99 522.477 2023.63 516.548 2045.17 521.566L2269.3 573.786" stroke="white" stroke-opacity="0.55"/>
<path d="M-360.771 324.1L-115.242 627.362C-101.769 644.004 -81.1607 653.35 -59.6417 652.578L324.255 638.808C338.61 638.294 352.755 642.284 364.678 650.213L609.77 813.196C628.35 825.551 639.629 846.17 639.957 868.377L643.839 1131.33" stroke="white" stroke-opacity="0.55"/>
<path d="M-367.286 337.434L-121.758 640.695C-108.284 657.337 -87.6758 666.684 -66.1569 665.912L317.74 652.142C332.095 651.627 346.24 655.618 358.163 663.546L603.255 826.529C621.835 838.885 633.114 859.503 633.442 881.71L637.324 1144.66" stroke="white" stroke-opacity="0.55"/>
<path d="M-374.241 349.844L-128.712 653.106C-115.238 669.748 -94.6304 679.094 -73.1115 678.322L310.785 664.552C325.14 664.038 339.286 668.028 351.208 675.957L596.3 838.94C614.88 851.295 626.16 871.914 626.488 894.121L630.369 1157.07" stroke="white" stroke-opacity="0.55"/>
<path d="M-401.107 401.499L-155.578 704.76C-142.105 721.402 -121.497 730.748 -99.9777 729.977L283.919 716.207C298.274 715.692 312.42 719.683 324.342 727.611L569.434 890.594C588.014 902.95 599.294 923.568 599.621 945.775L603.503 1208.73" stroke="white" stroke-opacity="0.55"/>
<path d="M-407.622 414.833L-162.094 718.094C-148.62 734.736 -128.012 744.082 -106.493 743.311L277.404 729.541C291.759 729.026 305.904 733.017 317.827 740.945L562.919 903.928C581.499 916.284 592.778 936.902 593.106 959.109L596.988 1222.06" stroke="white" stroke-opacity="0.55"/>
<path d="M-414.576 427.243L-169.048 730.504C-155.574 747.146 -134.966 756.492 -113.447 755.721L270.449 741.951C284.805 741.436 298.95 745.427 310.873 753.355L555.965 916.338C574.545 928.694 585.824 949.312 586.152 971.519L590.034 1234.47" stroke="white" stroke-opacity="0.55"/>
<path d="M-380.768 362.494L-135.239 665.755C-121.765 682.397 -101.157 691.744 -79.6383 690.972L304.258 677.202C318.613 676.687 332.759 680.678 344.682 688.606L589.773 851.589C608.353 863.945 619.633 884.563 619.961 906.77L623.842 1169.72" stroke="white" stroke-opacity="0.55"/>
<path d="M-387.283 375.827L-141.754 679.089C-128.28 695.731 -107.672 705.077 -86.1535 704.305L297.743 690.535C312.098 690.02 326.244 694.011 338.166 701.94L583.258 864.923C601.838 877.278 613.118 897.897 613.446 920.104L617.327 1183.06" stroke="white" stroke-opacity="0.55"/>
<path d="M-394.237 388.238L-148.708 691.499C-135.234 708.141 -114.627 717.488 -93.1076 716.716L290.789 702.946C305.144 702.431 319.29 706.422 331.212 714.35L576.304 877.333C594.884 889.689 606.164 910.307 606.491 932.514L610.373 1195.47" stroke="white" stroke-opacity="0.55"/>
<path d="M-423.757 439.209L-178.229 742.47C-164.755 759.112 -144.147 768.459 -122.628 767.687L261.268 753.917C275.624 753.402 289.769 757.393 301.692 765.321L546.783 928.304C565.363 940.66 576.643 961.278 576.971 983.485L580.853 1246.44" stroke="white" stroke-opacity="0.55"/>
<path d="M-430.272 452.543L-184.744 755.805C-171.27 772.447 -150.662 781.793 -129.143 781.021L254.753 767.251C269.108 766.737 283.254 770.727 295.177 778.656L540.268 941.639C558.848 953.994 570.128 974.613 570.456 996.82L574.337 1259.77" stroke="white" stroke-opacity="0.55"/>
<path d="M-437.227 464.952L-191.699 768.214C-178.225 784.856 -157.617 794.202 -136.098 793.43L247.799 779.66C262.154 779.145 276.299 783.136 288.222 791.065L533.314 954.048C551.894 966.403 563.173 987.022 563.501 1009.23L567.383 1272.18" stroke="white" stroke-opacity="0.55"/>
<path d="M-464.093 516.607L-218.565 819.868C-205.091 836.511 -184.483 845.857 -162.964 845.085L220.932 831.315C235.288 830.8 249.433 834.791 261.356 842.719L506.447 1005.7C525.028 1018.06 536.307 1038.68 536.635 1060.88L540.517 1323.84" stroke="white" stroke-opacity="0.55"/>
<path d="M-470.608 529.941L-225.079 833.202C-211.606 849.845 -190.998 859.191 -169.479 858.419L214.418 844.649C228.773 844.134 242.919 848.125 254.841 856.053L499.933 1019.04C518.513 1031.39 529.793 1052.01 530.12 1074.22L534.002 1337.17" stroke="white" stroke-opacity="0.55"/>
<path d="M-477.563 542.351L-232.034 845.613C-218.56 862.255 -197.952 871.601 -176.433 870.83L207.463 857.06C221.818 856.545 235.964 860.536 247.887 868.464L492.978 1031.45C511.558 1043.8 522.838 1064.42 523.166 1086.63L527.047 1349.58" stroke="white" stroke-opacity="0.55"/>
<path d="M-443.753 477.602L-198.225 780.864C-184.751 797.506 -164.143 806.852 -142.624 806.08L241.272 792.31C255.627 791.795 269.773 795.786 281.696 803.715L526.787 966.698C545.367 979.053 556.647 999.672 556.975 1021.88L560.857 1284.83" stroke="white" stroke-opacity="0.55"/>
<path d="M-450.269 490.936L-204.741 794.198C-191.267 810.84 -170.659 820.186 -149.14 819.414L234.757 805.644C249.112 805.129 263.257 809.12 275.18 817.049L520.272 980.032C538.852 992.387 550.131 1013.01 550.459 1035.21L554.341 1298.17" stroke="white" stroke-opacity="0.55"/>
<path d="M-457.223 503.346L-211.695 806.608C-198.221 823.25 -177.613 832.596 -156.094 831.824L227.802 818.054C242.158 817.54 256.303 821.53 268.226 829.459L513.318 992.442C531.898 1004.8 543.177 1025.42 543.505 1047.62L547.387 1310.58" stroke="white" stroke-opacity="0.55"/>
<path d="M-486.563 556.705L-241.034 859.966C-227.561 876.608 -206.953 885.955 -185.434 885.183L198.463 871.413C212.818 870.898 226.963 874.889 238.886 882.817L483.978 1045.8C502.558 1058.16 513.837 1078.77 514.165 1100.98L518.047 1363.93" stroke="white" stroke-opacity="0.55"/>
<path d="M-493.078 570.039L-247.55 873.301C-234.076 889.943 -213.468 899.289 -191.949 898.517L191.948 884.748C206.303 884.233 220.448 888.224 232.371 896.152L477.463 1059.14C496.043 1071.49 507.322 1092.11 507.65 1114.32L511.532 1377.27" stroke="white" stroke-opacity="0.55"/>
<path d="M-500.032 582.449L-254.504 885.71C-241.03 902.352 -220.422 911.699 -198.903 910.927L184.993 897.157C199.349 896.642 213.494 900.633 225.417 908.561L470.509 1071.54C489.089 1083.9 500.368 1104.52 500.696 1126.73L504.578 1389.68" stroke="white" stroke-opacity="0.55"/>
<path d="M-526.899 634.104L-281.37 937.365C-267.897 954.007 -247.289 963.354 -225.77 962.582L158.127 948.812C172.482 948.297 186.628 952.288 198.55 960.216L443.642 1123.2C462.222 1135.55 473.502 1156.17 473.829 1178.38L477.711 1441.33" stroke="white" stroke-opacity="0.55"/>
<path d="M-533.414 647.438L-287.886 950.7C-274.412 967.342 -253.804 976.688 -232.285 975.916L151.612 962.146C165.967 961.632 180.112 965.622 192.035 973.551L437.127 1136.53C455.707 1148.89 466.986 1169.51 467.314 1191.71L471.196 1454.67" stroke="white" stroke-opacity="0.55"/>
<path d="M-540.368 659.848L-294.84 963.109C-281.366 979.751 -260.758 989.098 -239.239 988.326L144.657 974.556C159.013 974.041 173.158 978.032 185.081 985.96L430.173 1148.94C448.753 1161.3 460.032 1181.92 460.36 1204.12L464.242 1467.08" stroke="white" stroke-opacity="0.55"/>
<path d="M-506.56 595.098L-261.031 898.36C-247.557 915.002 -226.949 924.348 -205.43 923.576L178.466 909.807C192.821 909.292 206.967 913.282 218.89 921.211L463.981 1084.19C482.561 1096.55 493.841 1117.17 494.169 1139.38L498.05 1402.33" stroke="white" stroke-opacity="0.55"/>
<path d="M-513.075 608.433L-267.546 911.694C-254.072 928.337 -233.464 937.683 -211.945 936.911L171.951 923.141C186.306 922.626 200.452 926.617 212.374 934.545L457.466 1097.53C476.046 1109.88 487.326 1130.5 487.654 1152.71L491.535 1415.66" stroke="white" stroke-opacity="0.55"/>
<path d="M-520.029 620.842L-274.5 924.104C-261.026 940.746 -240.419 950.092 -218.9 949.32L164.997 935.55C179.352 935.036 193.498 939.026 205.42 946.955L450.512 1109.94C469.092 1122.29 480.372 1142.91 480.699 1165.12L484.581 1428.07" stroke="white" stroke-opacity="0.55"/>
<path d="M-549.549 671.814L-304.021 975.075C-290.547 991.717 -269.939 1001.06 -248.42 1000.29L135.476 986.522C149.832 986.007 163.977 989.998 175.9 997.926L420.991 1160.91C439.571 1173.27 450.851 1193.88 451.179 1216.09L455.061 1479.04" stroke="white" stroke-opacity="0.55"/>
<path d="M-556.064 685.148L-310.536 988.41C-297.062 1005.05 -276.454 1014.4 -254.935 1013.63L128.961 999.857C143.316 999.342 157.462 1003.33 169.385 1011.26L414.476 1174.24C433.056 1186.6 444.336 1207.22 444.664 1229.43L448.545 1492.38" stroke="white" stroke-opacity="0.55"/>
<path d="M-563.019 697.558L-317.49 1000.82C-304.016 1017.46 -283.408 1026.81 -261.889 1026.04L122.007 1012.27C136.362 1011.75 150.508 1015.74 162.431 1023.67L407.522 1186.65C426.102 1199.01 437.382 1219.63 437.71 1241.83L441.591 1504.79" stroke="white" stroke-opacity="0.55"/>
<path d="M-589.885 749.212L-344.356 1052.47C-330.882 1069.12 -310.274 1078.46 -288.756 1077.69L95.1409 1063.92C109.496 1063.41 123.642 1067.4 135.564 1075.32L380.656 1238.31C399.236 1250.66 410.516 1271.28 410.843 1293.49L414.725 1556.44" stroke="white" stroke-opacity="0.55"/>
<path d="M-596.4 762.547L-350.872 1065.81C-337.398 1082.45 -316.79 1091.8 -295.271 1091.02L88.6252 1077.25C102.98 1076.74 117.126 1080.73 129.049 1088.66L374.14 1251.64C392.72 1264 404 1284.62 404.328 1306.82L408.21 1569.78" stroke="white" stroke-opacity="0.55"/>
<path d="M-603.355 774.956L-357.826 1078.22C-344.352 1094.86 -323.744 1104.21 -302.225 1103.43L81.6711 1089.66C96.0264 1089.15 110.172 1093.14 122.095 1101.07L367.186 1264.05C385.766 1276.41 397.046 1297.03 397.374 1319.23L401.255 1582.19" stroke="white" stroke-opacity="0.55"/>
<path d="M-569.546 710.207L-324.017 1013.47C-310.544 1030.11 -289.936 1039.46 -268.417 1038.69L115.48 1024.92C129.835 1024.4 143.981 1028.39 155.903 1036.32L400.995 1199.3C419.575 1211.66 430.855 1232.28 431.182 1254.48L435.064 1517.44" stroke="white" stroke-opacity="0.55"/>
<path d="M-576.061 723.541L-330.532 1026.8C-317.058 1043.45 -296.45 1052.79 -274.931 1052.02L108.965 1038.25C123.32 1037.73 137.466 1041.73 149.389 1049.65L394.48 1212.64C413.06 1224.99 424.34 1245.61 424.668 1267.82L428.549 1530.77" stroke="white" stroke-opacity="0.55"/>
<path d="M-583.015 735.951L-337.487 1039.21C-324.013 1055.86 -303.405 1065.2 -281.886 1064.43L102.01 1050.66C116.366 1050.14 130.511 1054.14 142.434 1062.06L387.526 1225.05C406.106 1237.4 417.385 1258.02 417.713 1280.23L421.595 1543.18" stroke="white" stroke-opacity="0.55"/>
<path d="M-501.459 583.632L-175.492 369.163C-157.604 357.393 -146.274 337.806 -144.923 316.315L-120.819 -67.0709C-119.918 -81.407 -114.553 -95.0908 -105.489 -106.175L80.8384 -334.024C94.9637 -351.297 116.593 -360.491 138.724 -358.631L400.781 -336.598" stroke="white" stroke-opacity="0.55"/>
<path d="M-488.832 591.429L-162.865 376.959C-144.977 365.19 -133.647 345.602 -132.296 324.112L-108.192 -59.2742C-107.291 -73.6104 -101.926 -87.2942 -92.8623 -98.3781L93.4654 -326.228C107.591 -343.501 129.22 -352.695 151.351 -350.834L413.408 -328.801" stroke="white" stroke-opacity="0.55"/>
<path d="M-477.167 599.572L-151.2 385.102C-133.312 373.333 -121.981 353.745 -120.63 332.255L-96.5266 -51.1314C-95.6253 -65.4675 -90.2608 -79.1514 -81.1968 -90.2353L105.131 -318.085C119.256 -335.358 140.885 -344.552 163.017 -342.691L425.073 -320.658" stroke="white" stroke-opacity="0.55"/>
<path d="M-428.41 631.394L-102.442 416.925C-84.5543 405.155 -73.2239 385.568 -71.8728 364.078L-47.7693 -19.3088C-46.868 -33.6449 -41.5035 -47.3287 -32.4394 -58.4127L153.888 -286.262C168.013 -303.535 189.643 -312.729 211.774 -310.869L473.831 -288.836" stroke="white" stroke-opacity="0.55"/>
<path d="M-415.782 639.191L-89.815 424.721C-71.9268 412.952 -60.5965 393.365 -59.2454 371.874L-35.1418 -11.5121C-34.2405 -25.8483 -28.8761 -39.5321 -19.812 -50.616L166.516 -278.466C180.641 -295.738 202.27 -304.933 224.401 -303.072L486.458 -281.039" stroke="white" stroke-opacity="0.55"/>
<path d="M-404.117 647.333L-78.1499 432.864C-60.2618 421.094 -48.9315 401.507 -47.5804 380.017L-23.4768 -3.36956C-22.5755 -17.7057 -17.211 -31.3895 -8.14697 -42.4735L178.181 -270.323C192.306 -287.596 213.935 -296.79 236.066 -294.929L498.123 -272.896" stroke="white" stroke-opacity="0.55"/>
<path d="M-465.222 607.312L-139.254 392.843C-121.366 381.073 -110.036 361.486 -108.685 339.996L-84.5813 -43.3906C-83.68 -57.7267 -78.3155 -71.4105 -69.2515 -82.4944L117.076 -310.344C131.201 -327.617 152.831 -336.811 174.962 -334.95L437.019 -312.917" stroke="white" stroke-opacity="0.55"/>
<path d="M-452.595 615.109L-126.627 400.64C-108.739 388.87 -97.409 369.283 -96.0579 347.792L-71.9543 -35.5939C-71.053 -49.9301 -65.6886 -63.6139 -56.6245 -74.6978L129.703 -302.547C143.828 -319.82 165.458 -329.015 187.589 -327.154L449.646 -305.121" stroke="white" stroke-opacity="0.55"/>
<path d="M-440.93 623.252L-114.962 408.782C-97.0743 397.013 -85.744 377.425 -84.3929 355.935L-60.2893 -27.4512C-59.388 -41.7874 -54.0235 -55.4712 -44.9595 -66.5551L141.368 -294.405C155.493 -311.678 177.123 -320.872 199.254 -319.011L461.311 -296.978" stroke="white" stroke-opacity="0.55"/>
<path d="M-393.114 657.648L-67.1465 443.179C-49.2584 431.409 -37.928 411.822 -36.5769 390.332L-12.4734 6.94526C-11.5721 -7.39087 -6.20762 -21.0747 2.85645 -32.1586L189.184 -260.008C203.309 -277.281 224.939 -286.475 247.07 -284.615L509.127 -262.582" stroke="white" stroke-opacity="0.55"/>
<path d="M-380.485 665.445L-54.5181 450.975C-36.63 439.206 -25.2996 419.619 -23.9485 398.128L0.15503 14.742C1.05635 0.405881 6.4208 -13.2779 15.4849 -24.3619L201.813 -252.211C215.938 -269.484 237.567 -278.679 259.698 -276.818L521.755 -254.785" stroke="white" stroke-opacity="0.55"/>
<path d="M-368.822 673.588L-42.8545 459.118C-24.9664 447.349 -13.6361 427.761 -12.285 406.271L11.8186 22.8846C12.7199 8.54846 18.0844 -5.13537 27.1484 -16.2193L213.476 -244.069C227.601 -261.342 249.231 -270.536 271.362 -268.675L533.419 -246.642" stroke="white" stroke-opacity="0.55"/>
<path d="M-320.064 705.41L5.90331 490.941C23.7914 479.171 35.1218 459.584 36.4729 438.094L60.5764 54.7072C61.4777 40.3711 66.8422 26.6873 75.9063 15.6033L262.234 -212.246C276.359 -229.519 297.988 -238.713 320.12 -236.853L582.177 -214.82" stroke="white" stroke-opacity="0.55"/>
<path d="M-307.436 713.207L18.5312 498.737C36.4193 486.968 47.7497 467.38 49.1008 445.89L73.2043 62.5036C74.1057 48.1675 79.4701 34.4836 88.5342 23.3997L274.862 -204.45C288.987 -221.723 310.616 -230.917 332.748 -229.056L594.804 -207.023" stroke="white" stroke-opacity="0.55"/>
<path d="M-295.771 721.349L30.1963 506.88C48.0844 495.11 59.4147 475.523 60.7658 454.033L84.8694 70.6464C85.7707 56.3103 91.1352 42.6265 100.199 31.5425L286.527 -196.307C300.652 -213.58 322.281 -222.774 344.413 -220.913L606.469 -198.88" stroke="white" stroke-opacity="0.55"/>
<path d="M-356.876 681.328L-30.9087 466.859C-13.0206 455.089 -1.69025 435.502 -0.339152 414.012L23.7644 30.6254C24.6657 16.2893 30.0302 2.60547 39.0942 -8.47846L225.422 -236.328C239.547 -253.601 261.176 -262.795 283.308 -260.934L545.365 -238.901" stroke="white" stroke-opacity="0.55"/>
<path d="M-344.248 689.125L-18.2813 474.656C-0.393152 462.886 10.9372 443.299 12.2883 421.809L36.3918 38.4222C37.2932 24.0861 42.6576 10.4022 51.7217 -0.681702L238.049 -228.531C252.175 -245.804 273.804 -254.998 295.935 -253.138L557.992 -231.105" stroke="white" stroke-opacity="0.55"/>
<path d="M-332.583 697.268L-6.61622 482.798C11.2719 471.029 22.6022 451.441 23.9533 429.951L48.0569 46.5646C48.9582 32.2285 54.3227 18.5447 63.3867 7.46075L249.714 -220.389C263.84 -237.662 285.469 -246.856 307.6 -244.995L569.657 -222.962" stroke="white" stroke-opacity="0.55"/>
<path d="M-282.373 731.72L43.5937 517.25C61.4818 505.481 72.8122 485.894 74.1633 464.403L98.2668 81.0169C99.1682 66.6808 104.533 52.997 113.597 41.913L299.924 -185.936C314.05 -203.209 335.679 -212.404 357.81 -210.543L619.867 -188.51" stroke="white" stroke-opacity="0.55"/>
<path d="M-269.746 739.516L56.2217 525.047C74.1098 513.277 85.4401 493.69 86.7912 472.2L110.895 88.8134C111.796 74.4773 117.161 60.7935 126.225 49.7095L312.552 -178.14C326.678 -195.413 348.307 -204.607 370.438 -202.746L632.495 -180.713" stroke="white" stroke-opacity="0.55"/>
<path d="M-258.081 747.659L67.8857 533.19C85.7738 521.42 97.1042 501.833 98.4553 480.342L122.559 96.9561C123.46 82.62 128.825 68.9362 137.889 57.8522L324.216 -169.997C338.342 -187.27 359.971 -196.464 382.102 -194.604L644.159 -172.571" stroke="white" stroke-opacity="0.55"/>
<path d="M-209.323 779.482L116.644 565.012C134.532 553.243 145.862 533.656 147.214 512.165L171.317 128.779C172.218 114.443 177.583 100.759 186.647 89.6751L372.975 -138.174C387.1 -155.447 408.729 -164.642 430.86 -162.781L692.917 -140.748" stroke="white" stroke-opacity="0.55"/>
<path d="M-196.695 787.279L129.272 572.809C147.16 561.04 158.49 541.453 159.842 519.962L183.945 136.576C184.846 122.24 190.211 108.556 199.275 97.472L385.603 -130.378C399.728 -147.65 421.357 -156.845 443.488 -154.984L705.545 -132.951" stroke="white" stroke-opacity="0.55"/>
<path d="M-185.031 795.421L140.936 580.952C158.824 569.182 170.154 549.595 171.506 528.105L195.609 144.718C196.51 130.382 201.875 116.698 210.939 105.614L397.267 -122.235C411.392 -139.508 433.021 -148.702 455.152 -146.842L717.209 -124.809" stroke="white" stroke-opacity="0.55"/>
<path d="M-246.136 755.4L79.831 540.931C97.7192 529.161 109.049 509.574 110.401 488.083L134.504 104.697C135.405 90.361 140.77 76.6771 149.834 65.5932L336.162 -162.256C350.287 -179.529 371.916 -188.724 394.047 -186.863L656.104 -164.83" stroke="white" stroke-opacity="0.55"/>
<path d="M-233.508 763.197L92.4595 548.727C110.348 536.958 121.678 517.371 123.029 495.88L147.133 112.494C148.034 98.1577 153.398 84.4739 162.462 73.39L348.79 -154.46C362.915 -171.732 384.545 -180.927 406.676 -179.066L668.733 -157.033" stroke="white" stroke-opacity="0.55"/>
<path d="M-221.844 771.339L104.124 556.87C122.012 545.1 133.342 525.513 134.693 504.023L158.797 120.636C159.698 106.3 165.062 92.6165 174.126 81.5325L360.454 -146.317C374.579 -163.59 396.209 -172.784 418.34 -170.923L680.397 -148.89" stroke="white" stroke-opacity="0.55"/>
<path d="M-174.027 805.736L151.94 591.266C169.828 579.497 181.158 559.91 182.509 538.419L206.613 155.033C207.514 140.697 212.879 127.013 221.943 115.929L408.271 -111.92C422.396 -129.193 444.025 -138.388 466.156 -136.527L728.213 -114.494" stroke="white" stroke-opacity="0.55"/>
<path d="M-161.399 813.533L164.568 599.063C182.456 587.294 193.787 567.706 195.138 546.216L219.241 162.83C220.143 148.493 225.507 134.81 234.571 123.726L420.899 -104.124C435.024 -121.397 456.653 -130.591 478.785 -128.73L740.842 -106.697" stroke="white" stroke-opacity="0.55"/>
<path d="M-149.735 821.675L176.232 607.206C194.121 595.436 205.451 575.849 206.802 554.358L230.906 170.972C231.807 156.636 237.171 142.952 246.235 131.868L432.563 -95.9813C446.688 -113.254 468.317 -122.448 490.449 -120.588L752.506 -98.5548" stroke="white" stroke-opacity="0.55"/>
<path d="M-100.977 853.498L224.99 639.028C242.878 627.259 254.208 607.672 255.559 586.181L279.663 202.795C280.564 188.459 285.929 174.775 294.993 163.691L481.32 -64.1585C495.446 -81.4315 517.075 -90.6257 539.206 -88.765L801.263 -66.732" stroke="white" stroke-opacity="0.55"/>
<path d="M-88.3491 861.294L237.618 646.825C255.506 635.055 266.837 615.468 268.188 593.978L292.291 210.592C293.193 196.255 298.557 182.572 307.621 171.488L493.949 -56.3619C508.074 -73.6348 529.703 -82.8291 551.835 -80.9684L813.891 -58.9354" stroke="white" stroke-opacity="0.55"/>
<path d="M-76.685 869.437L249.282 654.968C267.17 643.198 278.501 623.611 279.852 602.12L303.955 218.734C304.857 204.398 310.221 190.714 319.285 179.63L505.613 -48.2193C519.738 -65.4923 541.367 -74.6865 563.499 -72.8258L825.555 -50.7928" stroke="white" stroke-opacity="0.55"/>
<path d="M-137.79 829.416L188.178 614.947C206.066 603.177 217.396 583.59 218.747 562.099L242.851 178.713C243.752 164.377 249.117 150.693 258.181 139.609L444.508 -88.2403C458.634 -105.513 480.263 -114.708 502.394 -112.847L764.451 -90.8138" stroke="white" stroke-opacity="0.55"/>
<path d="M-125.162 837.213L200.805 622.743C218.693 610.974 230.024 591.386 231.375 569.896L255.478 186.51C256.38 172.174 261.744 158.49 270.808 147.406L457.136 -80.4437C471.261 -97.7166 492.89 -106.911 515.022 -105.05L777.078 -83.0172" stroke="white" stroke-opacity="0.55"/>
<path d="M-113.497 845.356L212.47 630.886C230.358 619.117 241.689 599.529 243.04 578.039L267.143 194.653C268.045 180.316 273.409 166.633 282.473 155.549L468.801 -72.3009C482.926 -89.5738 504.555 -98.7681 526.687 -96.9073L788.743 -74.8743" stroke="white" stroke-opacity="0.55"/>
</g>
<defs>
<clipPath id="clip0_435_35">
<rect width="1728" height="969" fill="white"/>
</clipPath>
</defs>
</svg>
