<svg width="3536" height="2805" viewBox="0 0 3536 2805" fill="none" xmlns="http://www.w3.org/2000/svg">
<g clip-path="url(#clip0_465_13)">
<rect width="3536" height="2805" fill="white"/>
<path d="M1275.55 238.865C1282.93 238.643 1290.32 239.24 1297.58 240.646L1410.16 262.46C1428.37 265.989 1447.2 264.383 1464.55 257.823L1488.06 248.933C1513.81 239.196 1534.41 219.272 1545 193.859L1550.13 181.534C1560.51 156.633 1580.51 136.981 1605.58 127.038L1651.3 108.911C1674.87 99.5658 1701.11 99.5227 1724.71 108.791L1788.76 133.944C1806.97 141.097 1826.89 142.749 1846.03 138.696L1986.88 108.873C1996.51 106.833 2006.39 106.228 2016.2 107.075L2118.53 115.918C2136.93 117.508 2155.41 113.972 2171.92 105.704L2255.06 64.0657L2302.64 46.5487C2325.15 38.2601 2349.89 38.3408 2372.35 46.7761L2419.88 64.6298C2448.95 75.546 2481.43 72.345 2507.8 55.9662L2559.57 23.8152C2572.64 15.6982 2587.93 11.8803 2603.28 12.898C2639.78 15.3178 2668.97 44.1756 2671.8 80.6481L2730.73 839.165C2735.85 905.006 2676.87 957.637 2612.03 945.089L1661.52 761.137C1631.71 755.369 1606.14 736.372 1592.01 709.501L1456.87 452.513C1441.55 423.378 1405.6 412.055 1376.35 427.152C1352.05 439.693 1322.34 434.196 1304.14 413.792L1293.46 401.816C1272.66 378.5 1238.35 372.994 1211.3 388.633C1197.56 396.574 1181.42 399.293 1165.84 396.291L1119.39 387.339C1099.16 383.442 1081.7 370.8 1071.67 352.806C1053.93 320.947 1063.73 280.795 1094.16 260.697L1101.39 255.922C1113.64 247.829 1127.91 243.309 1142.58 242.867L1275.55 238.865Z" fill="black"/>
<path d="M2260.52 1719.67C2253.13 1719.44 2245.75 1720.04 2238.49 1721.45L2125.91 1743.26C2107.7 1746.79 2088.87 1745.18 2071.52 1738.62L2048.01 1729.73C2022.26 1720 2001.66 1700.07 1991.07 1674.66L1985.94 1662.34C1975.56 1637.43 1955.56 1617.78 1930.49 1607.84L1884.77 1589.71C1861.2 1580.37 1834.96 1580.32 1811.36 1589.59L1747.31 1614.75C1729.09 1621.9 1709.18 1623.55 1690.04 1619.5L1549.19 1589.67C1539.56 1587.63 1529.68 1587.03 1519.87 1587.88L1417.54 1596.72C1399.14 1598.31 1380.66 1594.77 1364.15 1586.5L1281.01 1544.87L1233.43 1527.35C1210.92 1519.06 1186.18 1519.14 1163.72 1527.58L1116.19 1545.43C1087.12 1556.35 1054.64 1553.15 1028.27 1536.77L976.496 1504.62C963.426 1496.5 948.142 1492.68 932.79 1493.7C896.288 1496.12 867.101 1524.98 864.267 1561.45L805.337 2319.97C800.221 2385.81 859.201 2438.44 924.037 2425.89L1874.55 2241.94C1904.36 2236.17 1929.93 2217.17 1944.06 2190.3L2079.2 1933.31C2094.52 1904.18 2130.47 1892.86 2159.72 1907.95C2184.02 1920.49 2213.73 1915 2231.93 1894.59L2242.61 1882.62C2263.41 1859.3 2297.72 1853.79 2324.77 1869.43C2338.51 1877.37 2354.65 1880.09 2370.23 1877.09L2416.68 1868.14C2436.9 1864.24 2454.37 1851.6 2464.4 1833.61C2482.14 1801.75 2472.34 1761.6 2441.91 1741.5L2434.68 1736.72C2422.43 1728.63 2408.16 1724.11 2393.49 1723.67L2260.52 1719.67Z" fill="black"/>
<path d="M870.962 1079.7C872.637 1066.37 876.981 1053.51 883.734 1041.9L965.319 901.597C994.006 852.264 1058.09 836.901 1106.03 867.869L1282.8 982.064C1294.47 989.605 1304.44 999.497 1312.08 1011.11L1400.32 1145.26C1432.45 1194.12 1415.99 1260 1364.66 1288.01L1322.89 1310.79C1308.2 1318.8 1291.73 1323 1275 1323H1199.15C1175.49 1323 1152.59 1314.61 1134.53 1299.31L1117.76 1285.12C1110.62 1279.07 1102.67 1274.05 1094.13 1270.22L1063 1256.23C1036.42 1244.28 1005.13 1251.56 986.543 1274.01C964.031 1301.21 923.882 1305.37 896.269 1283.37L884.923 1274.33C863.233 1257.04 852.11 1229.71 855.568 1202.19L870.962 1079.7Z" fill="black"/>
<path d="M2665.04 2559.7C2663.36 2546.37 2659.02 2533.51 2652.27 2521.9L2570.68 2381.6C2541.99 2332.26 2477.91 2316.9 2429.97 2347.87L2253.2 2462.06C2241.53 2469.61 2231.56 2479.5 2223.92 2491.11L2135.68 2625.26C2103.55 2674.12 2120.01 2740 2171.34 2768.01L2213.11 2790.79C2227.8 2798.8 2244.27 2803 2261 2803H2336.85C2360.51 2803 2383.41 2794.61 2401.47 2779.31L2418.24 2765.12C2425.38 2759.07 2433.33 2754.05 2441.87 2750.22L2473 2736.23C2499.58 2724.28 2530.87 2731.56 2549.46 2754.01C2571.97 2781.21 2612.12 2785.37 2639.73 2763.37L2651.08 2754.33C2672.77 2737.04 2683.89 2709.71 2680.43 2682.19L2665.04 2559.7Z" fill="black"/>
</g>
<defs>
<clipPath id="clip0_465_13">
<rect width="3536" height="2805" fill="white"/>
</clipPath>
</defs>
</svg>
