<svg width="9600" height="935" viewBox="0 0 9600 935" fill="none" xmlns="http://www.w3.org/2000/svg">
<g clip-path="url(#clip0_446_10)">
<rect width="9600" height="935" fill="white"/>
<path d="M4307.55 226.866C4314.93 226.643 4322.32 227.241 4329.58 228.647L4442.16 250.461C4460.37 253.989 4479.2 252.384 4496.55 245.824L4520.06 236.934C4545.81 227.197 4566.41 207.273 4577 181.86L4582.13 169.535C4592.51 144.634 4612.51 124.981 4637.58 115.038L4683.3 96.912C4706.87 87.5665 4733.11 87.5235 4756.71 96.7916L4820.76 121.945C4838.97 129.098 4858.89 130.749 4878.03 126.696L5018.88 96.8736C5028.51 94.834 5038.39 94.2283 5048.2 95.076L5150.53 103.919C5168.93 105.508 5187.41 101.973 5203.92 93.7042L5287.06 52.0665L5334.64 34.5495C5357.15 26.2608 5381.89 26.3415 5404.35 34.7769L5451.88 52.6306C5480.95 63.5467 5513.43 60.3457 5539.8 43.9669L5591.57 11.8159C5604.64 3.69895 5619.93 -0.118927 5635.28 0.89875C5671.78 3.31854 5700.97 32.1763 5703.8 68.6488L5762.73 827.166C5767.85 893.006 5708.87 945.638 5644.03 933.09L4693.52 749.138C4663.71 743.369 4638.14 724.373 4624.01 697.502L4488.87 440.513C4473.55 411.379 4437.6 400.056 4408.35 415.153C4384.05 427.693 4354.34 422.197 4336.14 401.793L4325.46 389.817C4304.66 366.5 4270.35 360.995 4243.3 376.634C4229.56 384.575 4213.42 387.294 4197.84 384.292L4151.39 375.34C4131.16 371.442 4113.7 358.801 4103.67 340.807C4085.93 308.948 4095.73 268.795 4126.16 248.697L4133.39 243.923C4145.64 235.83 4159.91 231.309 4174.58 230.868L4307.55 226.866Z" fill="black"/>
<path d="M3902.96 677.7C3904.64 664.37 3908.98 651.514 3915.73 639.9L3997.32 499.597C4026.01 450.264 4090.09 434.901 4138.03 465.869L4314.8 580.064C4326.47 587.605 4336.44 597.497 4344.08 609.108L4432.32 743.264C4464.45 792.119 4447.99 858.004 4396.66 886.005L4354.89 908.79C4340.2 916.802 4323.73 921 4307 921H4231.15C4207.49 921 4184.59 912.607 4166.53 897.313L4149.76 883.116C4142.62 877.069 4134.67 872.053 4126.13 868.217L4095 854.226C4068.42 842.278 4037.13 849.556 4018.54 872.01C3996.03 899.212 3955.88 903.375 3928.27 881.37L3916.92 872.33C3895.23 855.045 3884.11 827.711 3887.57 800.193L3902.96 677.7Z" fill="black"/>
</g>
<defs>
<clipPath id="clip0_446_10">
<rect width="9600" height="935" fill="white"/>
</clipPath>
</defs>
</svg>
