<svg width="188" height="152" viewBox="0 0 188 152" fill="none" xmlns="http://www.w3.org/2000/svg">
<circle cx="94" cy="76" r="76" fill="white"/>
<circle cx="93.5005" cy="80.5" r="58.5" fill="black"/>
<path d="M93.2934 94.7071C93.6839 95.0976 94.3171 95.0976 94.7076 94.7071L101.072 88.3431C101.462 87.9526 101.462 87.3195 101.072 86.9289C100.681 86.5384 100.048 86.5384 99.6573 86.9289L94.0005 92.5858L88.3436 86.9289C87.9531 86.5384 87.3199 86.5384 86.9294 86.9289C86.5389 87.3195 86.5389 87.9526 86.9294 88.3431L93.2934 94.7071ZM94.0005 68H93.0005V94H94.0005H95.0005V68H94.0005Z" fill="white"/>
<mask id="path-4-inside-1_436_18" fill="white">
<path d="M0 102C11.703 99.6409 16.5832 95.7974 18 78L23 102H0Z"/>
</mask>
<path d="M18 78L996.98 -125.954L-978.846 -1.35754L18 78ZM0 102L-197.607 -878.281L0 1102V102ZM23 102V1102H1252.8L1001.98 -101.954L23 102ZM18 78L-978.846 -1.35754C-976.438 -31.6051 -962.202 -292.726 -759.75 -539.095C-531.377 -817.008 -236.7 -870.401 -197.607 -878.281L0 102L197.607 1082.28C248.403 1072.04 551.372 1015.55 785.464 730.674C993.636 477.344 1011.02 205.403 1014.85 157.358L18 78ZM0 102V1102H23V102V-898H0V102ZM23 102L1001.98 -101.954L996.98 -125.954L18 78L-960.98 281.954L-955.98 305.954L23 102Z" fill="white" mask="url(#path-4-inside-1_436_18)"/>
<mask id="path-6-inside-2_436_18" fill="white">
<path d="M188 102C176.297 99.6409 171.417 95.7974 170 78L165 102H188Z"/>
</mask>
<path d="M170 78L-808.98 -125.954L1166.85 -1.35754L170 78ZM188 102L385.607 -878.281L188 1102V102ZM165 102V1102H-1064.8L-813.98 -101.954L165 102ZM170 78L1166.85 -1.35754C1164.44 -31.6051 1150.2 -292.726 947.75 -539.095C719.377 -817.008 424.7 -870.401 385.607 -878.281L188 102L-9.60696 1082.28C-60.4031 1072.04 -363.372 1015.55 -597.464 730.674C-805.636 477.344 -823.021 205.403 -826.846 157.358L170 78ZM188 102V1102H165V102V-898H188V102ZM165 102L-813.98 -101.954L-808.98 -125.954L170 78L1148.98 281.954L1143.98 305.954L165 102Z" fill="white" mask="url(#path-6-inside-2_436_18)"/>
</svg>
